<svg width="36" height="36" viewBox="0 0 36 36" fill="none" xmlns="http://www.w3.org/2000/svg">
<circle cx="18" cy="18" r="18" fill="url(#paint0_linear_16831_5745)"/>
<circle cx="18" cy="18" r="18" fill="url(#paint1_radial_16831_5745)"/>
<path d="M18.0032 13.7262C15.6384 13.7262 13.731 15.6341 13.731 17.9993C13.731 20.3646 15.6384 22.2725 18.0032 22.2725C20.3679 22.2725 22.2753 20.3646 22.2753 17.9993C22.2753 15.6341 20.3679 13.7262 18.0032 13.7262ZM18.0032 20.7774C16.475 20.7774 15.2257 19.5316 15.2257 17.9993C15.2257 16.4671 16.4713 15.2213 18.0032 15.2213C19.535 15.2213 20.7806 16.4671 20.7806 17.9993C20.7806 19.5316 19.5313 20.7774 18.0032 20.7774ZM23.4466 13.5514C23.4466 14.1056 23.0004 14.5481 22.4501 14.5481C21.8961 14.5481 21.4536 14.1018 21.4536 13.5514C21.4536 13.001 21.8998 12.5547 22.4501 12.5547C23.0004 12.5547 23.4466 13.001 23.4466 13.5514ZM26.2761 14.563C26.2129 13.2279 25.908 12.0452 24.9301 11.0709C23.9559 10.0965 22.7736 9.79153 21.4387 9.72459C20.063 9.64649 15.9396 9.64649 14.5639 9.72459C13.2328 9.78781 12.0504 10.0928 11.0725 11.0671C10.0946 12.0415 9.79346 13.2242 9.72653 14.5593C9.64845 15.9353 9.64845 20.0597 9.72653 21.4357C9.78974 22.7708 10.0946 23.9535 11.0725 24.9278C12.0504 25.9022 13.229 26.2072 14.5639 26.2741C15.9396 26.3522 20.063 26.3522 21.4387 26.2741C22.7736 26.2109 23.9559 25.9059 24.9301 24.9278C25.9043 23.9535 26.2091 22.7708 26.2761 21.4357C26.3542 20.0597 26.3542 15.939 26.2761 14.563ZM24.4988 22.9121C24.2088 23.6411 23.6473 24.2026 22.9149 24.4964C21.818 24.9316 19.2153 24.8311 18.0032 24.8311C16.791 24.8311 14.1846 24.9278 13.0915 24.4964C12.3627 24.2063 11.8013 23.6448 11.5075 22.9121C11.0725 21.815 11.1729 19.2117 11.1729 17.9993C11.1729 16.787 11.0762 14.1799 11.5075 13.0866C11.7975 12.3576 12.359 11.7961 13.0915 11.5023C14.1883 11.0671 16.791 11.1676 18.0032 11.1676C19.2153 11.1676 21.8217 11.0709 22.9149 11.5023C23.6436 11.7923 24.2051 12.3539 24.4988 13.0866C24.9338 14.1837 24.8334 16.787 24.8334 17.9993C24.8334 19.2117 24.9338 21.8188 24.4988 22.9121Z" fill="white"/>
<defs>
<linearGradient id="paint0_linear_16831_5745" x1="10.2" y1="1.00732e-07" x2="18" y2="36" gradientUnits="userSpaceOnUse">
<stop stop-color="#3350F3"/>
<stop offset="0.552532" stop-color="#D41EB0"/>
<stop offset="1" stop-color="#F8214E"/>
</linearGradient>
<radialGradient id="paint1_radial_16831_5745" cx="0" cy="0" r="1" gradientUnits="userSpaceOnUse" gradientTransform="translate(7.2 32.4) rotate(-31.6075) scale(27.4758)">
<stop stop-color="#FFD43D"/>
<stop offset="1" stop-color="#F75F2B" stop-opacity="0.12"/>
</radialGradient>
</defs>
</svg>
