<svg width="36" height="36" viewBox="0 0 36 36" fill="none" xmlns="http://www.w3.org/2000/svg">
<circle cx="18" cy="18" r="18" fill="#3F8AE0"/>
<path fill-rule="evenodd" clip-rule="evenodd" d="M18.8978 22.9623C18.8978 22.9623 19.2287 22.9301 19.3981 22.7706C19.5533 22.6244 19.5479 22.3486 19.5479 22.3486C19.5479 22.3486 19.5273 21.0605 20.2096 20.8703C20.8822 20.6833 21.7457 22.1159 22.6621 22.6668C23.3543 23.0834 23.8798 22.9922 23.8798 22.9922L26.3286 22.9623C26.3286 22.9623 27.6091 22.8932 27.002 22.0106C26.9518 21.9383 26.6478 21.3576 25.1818 20.1646C23.6457 18.9159 23.852 19.1178 25.7009 16.9575C26.8272 15.6419 27.2773 14.8387 27.1365 14.4953C27.0029 14.1668 26.1744 14.254 26.1744 14.254L23.418 14.269C23.418 14.269 23.2135 14.2446 23.062 14.324C22.914 14.4018 22.8181 14.5833 22.8181 14.5833C22.8181 14.5833 22.3823 15.601 21.8004 16.4671C20.5728 18.2934 20.0823 18.3901 19.8815 18.2769C19.4143 18.0121 19.5308 17.2144 19.5308 16.6478C19.5308 14.8772 19.8375 14.1393 18.9346 13.9483C18.6351 13.8847 18.4145 13.843 17.6478 13.836C16.6642 13.8273 15.832 13.8391 15.3604 14.0411C15.0465 14.1754 14.8044 14.4757 14.9524 14.4929C15.1344 14.5142 15.5469 14.5904 15.7657 14.8513C16.0481 15.1884 16.0383 15.9445 16.0383 15.9445C16.0383 15.9445 16.2006 18.0286 15.659 18.2872C15.2877 18.4648 14.7784 18.1025 13.6836 16.4451C13.1231 15.5963 12.6999 14.658 12.6999 14.658C12.6999 14.658 12.6183 14.4827 12.4722 14.3884C12.2955 14.2745 12.0489 14.2391 12.0489 14.2391L9.42971 14.254C9.42971 14.254 9.03606 14.2635 8.8917 14.4136C8.76347 14.5464 8.88183 14.8222 8.88183 14.8222C8.88183 14.8222 10.9325 19.0275 13.255 21.147C15.3846 23.0896 17.802 22.9623 17.802 22.9623H18.8978Z" fill="white"/>
</svg>
