<svg width="36" height="36" viewBox="0 0 36 36" fill="none" xmlns="http://www.w3.org/2000/svg">
<circle cx="18" cy="18" r="18" fill="#00D15D"/>
<path fill-rule="evenodd" clip-rule="evenodd" d="M18.0362 26.1895H18.0328C16.6439 26.189 15.2792 25.8422 14.0671 25.1842L9.66797 26.3327L10.8453 22.0531C10.119 20.8006 9.73692 19.3798 9.73754 17.9243C9.73936 13.3707 13.4621 9.66602 18.0361 9.66602C20.2561 9.66697 22.3396 10.527 23.9064 12.0881C25.4731 13.6491 26.3355 15.7241 26.3346 17.9308C26.3328 22.4833 22.6116 26.1876 18.0362 26.1895ZM14.2713 23.6891L14.5232 23.8379C15.5822 24.4633 16.7961 24.7942 18.0338 24.7947H18.0365C21.8382 24.7947 24.9323 21.7153 24.9338 17.9303C24.9346 16.0961 24.2178 14.3715 22.9156 13.074C21.6133 11.7765 19.8816 11.0616 18.0393 11.061C14.2347 11.061 11.1405 14.1401 11.139 17.9248C11.1385 19.2218 11.5031 20.485 12.1936 21.5779L12.3576 21.8376L11.6608 24.3706L14.2713 23.6891ZM22.217 19.8947C22.1651 19.8086 22.0269 19.7569 21.8196 19.6536C21.6122 19.5503 20.5928 19.0512 20.4027 18.9822C20.2127 18.9134 20.0744 18.879 19.9362 19.0855C19.798 19.2921 19.4006 19.7569 19.2796 19.8947C19.1587 20.0323 19.0377 20.0496 18.8304 19.9463C18.6231 19.843 17.955 19.6251 17.1629 18.9221C16.5465 18.3749 16.1304 17.6991 16.0094 17.4925C15.8885 17.2859 15.9965 17.1743 16.1003 17.0714C16.1936 16.9789 16.3077 16.8303 16.4114 16.7098C16.515 16.5894 16.5496 16.5032 16.6187 16.3656C16.6878 16.2278 16.6533 16.1074 16.6014 16.0041C16.5496 15.9008 16.1349 14.885 15.9621 14.4718C15.7938 14.0694 15.6229 14.124 15.4956 14.1176C15.3748 14.1116 15.2364 14.1103 15.0982 14.1103C14.96 14.1103 14.7353 14.1619 14.5453 14.3685C14.3552 14.5751 13.8196 15.0744 13.8196 16.09C13.8196 17.1058 14.5625 18.087 14.6662 18.2248C14.7699 18.3625 16.1283 20.4468 18.2084 21.3407C18.7031 21.5533 19.0893 21.6803 19.3905 21.7754C19.8872 21.9325 20.3392 21.9103 20.6964 21.8571C21.0949 21.7979 21.9232 21.358 22.0961 20.876C22.2688 20.3939 22.2688 19.9807 22.217 19.8947Z" fill="white"/>
</svg>
